<svg width="95" height="43" viewBox="0 0 95 43" fill="none" xmlns="http://www.w3.org/2000/svg">
<path d="M4.608 39.18C4.024 39.18 3.492 39.084 3.012 38.892C2.532 38.7 2.12 38.42 1.776 38.052C1.432 37.684 1.164 37.232 0.972 36.696C0.788 36.152 0.696 35.532 0.696 34.836C0.696 34.14 0.8 33.524 1.008 32.988C1.224 32.444 1.512 31.988 1.872 31.62C2.232 31.252 2.652 30.972 3.132 30.78C3.612 30.588 4.124 30.492 4.668 30.492C5.012 30.492 5.32 30.516 5.592 30.564C5.872 30.612 6.112 30.668 6.312 30.732C6.52 30.796 6.688 30.86 6.816 30.924C6.944 30.988 7.032 31.036 7.08 31.068L6.744 32.028C6.672 31.98 6.568 31.928 6.432 31.872C6.296 31.816 6.14 31.76 5.964 31.704C5.796 31.648 5.608 31.604 5.4 31.572C5.2 31.532 4.996 31.512 4.788 31.512C4.348 31.512 3.952 31.588 3.6 31.74C3.248 31.892 2.948 32.112 2.7 32.4C2.452 32.688 2.26 33.04 2.124 33.456C1.996 33.864 1.932 34.324 1.932 34.836C1.932 35.332 1.988 35.784 2.1 36.192C2.22 36.6 2.396 36.952 2.628 37.248C2.86 37.536 3.148 37.76 3.492 37.92C3.844 38.08 4.252 38.16 4.716 38.16C5.252 38.16 5.696 38.104 6.048 37.992C6.4 37.88 6.664 37.78 6.84 37.692L7.14 38.652C7.084 38.692 6.984 38.744 6.84 38.808C6.696 38.864 6.516 38.92 6.3 38.976C6.084 39.032 5.832 39.08 5.544 39.12C5.256 39.16 4.944 39.18 4.608 39.18ZM21.643 34.836C21.643 34.124 21.747 33.496 21.955 32.952C22.171 32.408 22.459 31.956 22.819 31.596C23.187 31.228 23.611 30.952 24.091 30.768C24.579 30.584 25.095 30.492 25.639 30.492C26.175 30.492 26.679 30.584 27.151 30.768C27.631 30.952 28.051 31.228 28.411 31.596C28.771 31.956 29.055 32.408 29.263 32.952C29.479 33.496 29.587 34.124 29.587 34.836C29.587 35.548 29.479 36.176 29.263 36.72C29.055 37.264 28.771 37.72 28.411 38.088C28.051 38.448 27.631 38.72 27.151 38.904C26.679 39.088 26.175 39.18 25.639 39.18C25.095 39.18 24.579 39.088 24.091 38.904C23.611 38.72 23.187 38.448 22.819 38.088C22.459 37.72 22.171 37.264 21.955 36.72C21.747 36.176 21.643 35.548 21.643 34.836ZM22.867 34.836C22.867 35.34 22.931 35.8 23.059 36.216C23.187 36.624 23.367 36.972 23.599 37.26C23.839 37.548 24.127 37.772 24.463 37.932C24.807 38.084 25.191 38.16 25.615 38.16C26.039 38.16 26.419 38.084 26.755 37.932C27.091 37.772 27.375 37.548 27.607 37.26C27.847 36.972 28.031 36.624 28.159 36.216C28.287 35.8 28.351 35.34 28.351 34.836C28.351 34.332 28.287 33.876 28.159 33.468C28.031 33.052 27.847 32.7 27.607 32.412C27.375 32.124 27.091 31.904 26.755 31.752C26.419 31.592 26.039 31.512 25.615 31.512C25.191 31.512 24.807 31.592 24.463 31.752C24.127 31.904 23.839 32.124 23.599 32.412C23.367 32.7 23.187 33.052 23.059 33.468C22.931 33.876 22.867 34.332 22.867 34.836ZM50.3922 39C50.2562 38.64 50.1282 38.288 50.0082 37.944C49.8882 37.592 49.7642 37.236 49.6362 36.876H45.8682L45.1122 39H43.9002C44.2202 38.12 44.5202 37.308 44.8002 36.564C45.0802 35.812 45.3522 35.1 45.6162 34.428C45.8882 33.756 46.1562 33.116 46.4202 32.508C46.6842 31.892 46.9602 31.284 47.2482 30.684H48.3162C48.6042 31.284 48.8802 31.892 49.1442 32.508C49.4082 33.116 49.6722 33.756 49.9362 34.428C50.2082 35.1 50.4842 35.812 50.7642 36.564C51.0442 37.308 51.3442 38.12 51.6642 39H50.3922ZM49.3002 35.916C49.0442 35.22 48.7882 34.548 48.5322 33.9C48.2842 33.244 48.0242 32.616 47.7522 32.016C47.4722 32.616 47.2042 33.244 46.9482 33.9C46.7002 34.548 46.4522 35.22 46.2042 35.916H49.3002ZM69.8866 39.18C69.3026 39.18 68.7706 39.084 68.2906 38.892C67.8106 38.7 67.3986 38.42 67.0546 38.052C66.7106 37.684 66.4426 37.232 66.2506 36.696C66.0666 36.152 65.9746 35.532 65.9746 34.836C65.9746 34.14 66.0786 33.524 66.2866 32.988C66.5026 32.444 66.7906 31.988 67.1506 31.62C67.5106 31.252 67.9306 30.972 68.4106 30.78C68.8906 30.588 69.4026 30.492 69.9466 30.492C70.2906 30.492 70.5986 30.516 70.8706 30.564C71.1506 30.612 71.3906 30.668 71.5906 30.732C71.7986 30.796 71.9666 30.86 72.0946 30.924C72.2226 30.988 72.3106 31.036 72.3586 31.068L72.0226 32.028C71.9506 31.98 71.8466 31.928 71.7106 31.872C71.5746 31.816 71.4186 31.76 71.2426 31.704C71.0746 31.648 70.8866 31.604 70.6786 31.572C70.4786 31.532 70.2746 31.512 70.0666 31.512C69.6266 31.512 69.2306 31.588 68.8786 31.74C68.5266 31.892 68.2266 32.112 67.9786 32.4C67.7306 32.688 67.5386 33.04 67.4026 33.456C67.2746 33.864 67.2106 34.324 67.2106 34.836C67.2106 35.332 67.2666 35.784 67.3786 36.192C67.4986 36.6 67.6746 36.952 67.9066 37.248C68.1386 37.536 68.4266 37.76 68.7706 37.92C69.1226 38.08 69.5306 38.16 69.9946 38.16C70.5306 38.16 70.9746 38.104 71.3266 37.992C71.6786 37.88 71.9426 37.78 72.1186 37.692L72.4186 38.652C72.3626 38.692 72.2626 38.744 72.1186 38.808C71.9746 38.864 71.7946 38.92 71.5786 38.976C71.3626 39.032 71.1106 39.08 70.8226 39.12C70.5346 39.16 70.2226 39.18 69.8866 39.18ZM92.724 30.684H93.888V39H92.724V35.16H88.656V39H87.492V30.684H88.656V34.152H92.724V30.684Z" fill="white"/>
<path d="M65.9335 15.0331C65.9315 15.7131 65.8497 16.3262 65.6881 16.8724C65.5131 17.4185 65.2717 17.8911 64.9638 18.2902C64.6427 18.6759 64.2551 18.9748 63.8012 19.1868C63.3472 19.3988 62.8269 19.5039 62.2402 19.5021C61.6669 19.5004 61.1539 19.3922 60.7012 19.1775C60.2352 18.9628 59.8494 18.6617 59.5439 18.2741C59.2251 17.8732 58.9865 17.3991 58.8281 16.852C58.6564 16.3048 58.5715 15.6912 58.5736 15.0112C58.5756 14.3312 58.6641 13.7181 58.839 13.172C59.0007 12.6125 59.2421 12.1398 59.5633 11.7541C59.8711 11.355 60.2587 11.0495 60.726 10.8376C61.18 10.6256 61.6936 10.5205 62.2669 10.5222C62.8536 10.5239 63.3733 10.6388 63.8259 10.8668C64.2786 11.0815 64.6644 11.3893 64.9832 11.7903C65.2887 12.1778 65.5273 12.6519 65.6989 13.2124C65.8573 13.7595 65.9355 14.3664 65.9335 15.0331ZM55.3536 15.0016C55.35 16.1883 55.5269 17.2355 55.8842 18.1432C56.2282 19.0376 56.706 19.7923 57.3175 20.4075C57.9291 21.0093 58.661 21.4648 59.5135 21.774C60.3525 22.0832 61.2587 22.2392 62.2321 22.2421C63.1787 22.2449 64.0725 22.0943 64.9134 21.7901C65.7543 21.4859 66.489 21.0348 67.1175 20.4366C67.746 19.8252 68.2415 19.0733 68.6042 18.1811C68.9669 17.2755 69.15 16.2293 69.1535 15.0427C69.157 13.856 68.9735 12.8155 68.6028 11.921C68.2322 11.0132 67.7344 10.2518 67.1096 9.63657C66.4714 9.02133 65.7395 8.55915 64.9137 8.25003C64.0746 7.94087 63.1951 7.78491 62.2751 7.78218C61.3284 7.77936 60.4346 7.93004 59.5937 8.2342C58.7528 8.53837 58.0181 8.99619 57.3896 9.60765C56.7611 10.2191 56.2656 10.9777 55.9029 11.8832C55.5402 12.7755 55.3571 13.815 55.3536 15.0016ZM42.9622 8.04473L42.9543 10.7047L47.1343 10.7172L47.1009 21.9171L50.2209 21.9264L50.2542 10.7264L54.4342 10.7389L54.4421 8.07888L42.9622 8.04473ZM40.957 8.03877L37.8371 8.02949L37.7958 21.8894L40.9158 21.8987L40.957 8.03877ZM30.4677 21.8676C31.0178 20.7093 31.5614 19.5042 32.0985 18.2525C32.6356 17.0007 33.1459 15.7622 33.6296 14.537C34.1132 13.3118 34.5634 12.1398 34.98 11.021C35.3833 9.9022 35.733 8.90323 36.0289 8.02411L32.589 8.01388C32.3199 8.81308 32.0307 9.67889 31.7212 10.6113C31.3985 11.5304 31.0758 12.4494 30.753 13.3684C30.4169 14.2874 30.0943 15.1665 29.7852 16.0056C29.476 16.8447 29.1872 17.5705 28.9187 18.183C28.6672 17.5689 28.3893 16.8414 28.0852 16.0005C27.7677 15.1596 27.4503 14.2786 27.133 13.3577C26.8024 12.4367 26.4852 11.5157 26.1812 10.5948C25.864 9.66055 25.5733 8.79301 25.309 7.99222L21.989 7.98235C22.293 8.86326 22.6434 9.8643 23.0401 10.9855C23.4367 12.1067 23.8732 13.2813 24.3496 14.5094C24.8259 15.7375 25.3289 16.979 25.8585 18.2339C26.3881 19.4888 26.9245 20.6971 27.4677 21.8587L30.4677 21.8676Z" fill="white"/>
</svg>
